<svg xmlns="http://www.w3.org/2000/svg" viewBox="0 0 24 24" id="portfolio">
  <path fill="#fd6c77" d="m12,8c2.21,0,4,1.79,4,4,0,.347-.058.679-.141,1h5.84c.034-.329.051-.662.051-1,0-5.38-4.37-9.75-9.75-9.75-.338,0-.671.017-1,.051v5.84c.321-.083.653-.141,1-.141Z"></path>
  <path fill="#97d729" d="m15.859,13c-.446,1.723-1.996,3-3.859,3-2.21,0-4-1.79-4-4,0-1.863,1.277-3.413,3-3.859V2.301C6.089,2.803,2.25,6.958,2.25,12c0,5.38,4.37,9.75,9.75,9.75,5.042,0,9.197-3.839,9.699-8.75h-5.84Z"></path>
  <path fill="#494249" d="m12,2.25C6.624,2.25,2.25,6.624,2.25,12s4.374,9.75,9.75,9.75,9.75-4.374,9.75-9.75S17.376,2.25,12,2.25Zm8.25,9.75c0,.084-.01.166-.013.25h-3.513c.005-.085.025-.164.025-.25,0-2.619-2.131-4.75-4.75-4.75-.086,0-.165.021-.25.025v-3.513c.084-.003.166-.013.25-.013,4.549,0,8.25,3.701,8.25,8.25Zm-8.25-3.25c1.792,0,3.25,1.458,3.25,3.25s-1.458,3.25-3.25,3.25-3.25-1.458-3.25-3.25,1.458-3.25,3.25-3.25Zm0,11.5c-4.549,0-8.25-3.701-8.25-8.25,0-3.948,2.79-7.254,6.5-8.059v3.653c-1.754.699-3,2.406-3,4.406,0,2.619,2.131,4.75,4.75,4.75,2,0,3.707-1.246,4.406-3h3.653c-.805,3.71-4.111,6.5-8.059,6.5Z"></path>
</svg>
