<svg xmlns="http://www.w3.org/2000/svg" width="1em" height="1em" viewBox="0 0 512 512" id="self-improvement"><path fill="#9bc9ff" fill-rule="evenodd" d="M491.943 213.74h-25.164a3.995 3.995 0 0 0-4.001 4.001v87.898h-50.073v-87.898a3.996 3.996 0 0 0-4.001-4.001h-25.163l54.201-63.82 54.201 63.82zm-210.918-37.513h-50.026V88.33a4 4 0 0 0-4.001-4H201.84l54.146-63.822 54.203 63.822h-25.164a4 4 0 0 0-4 4v87.897zM128.483 213.74h-25.211c-2.189 0-4.001 1.81-4.001 4.001v87.898H49.245v-87.898a3.996 3.996 0 0 0-4.001-4.001H20.081l54.201-63.82 54.201 63.82zm127.505 7.78c10.074 0 20.432 2.242 28.693 8.262 12.534 9.135 16.439 24.016 16.439 38.866 0 14.814-4.04 30.261-12.824 42.344-7.667 10.547-18.941 18.239-32.308 18.239s-24.641-7.691-32.308-18.239c-8.784-12.083-12.824-27.53-12.824-42.344 0-14.857 3.916-29.733 16.458-38.866 8.255-6.012 18.608-8.262 28.674-8.262z" clip-rule="evenodd"></path><path fill="#57a4ff" fill-rule="evenodd" d="m255.988 26.688 45.556 53.641h-16.519c-4.424 0-8 3.591-8 8v83.897h-42.026V88.33c0-4.41-3.576-8-8.001-8h-16.519l45.509-53.642zm-54.31 69.642h17.319v76.01c0 8.772 7.106 15.888 15.86 15.888h42.262c8.801 0 15.907-7.116 15.907-15.888V96.33h17.272c4.753 0 8.895-2.65 10.871-6.932 1.977-4.269 1.318-9.149-1.741-12.74l-54.31-63.972c-2.306-2.716-5.553-4.207-9.13-4.207-3.53 0-6.777 1.492-9.083 4.207l-54.31 63.972c-3.059 3.591-3.718 8.471-1.741 12.74 1.977 4.283 6.118 6.932 10.824 6.932zm265.101 113.41a7.997 7.997 0 0 0-8.001 8.001v83.898h-42.073v-83.898a7.997 7.997 0 0 0-8-8.001h-16.519l45.556-53.641 45.556 53.641h-16.519zm34.355-3.67-54.31-63.971c-2.306-2.72-5.506-4.207-9.083-4.207s-6.777 1.487-9.083 4.207l-54.357 63.971c-3.012 3.591-3.718 8.471-1.694 12.74 1.977 4.278 6.118 6.932 10.824 6.932h17.272v76.01c0 8.758 7.154 15.888 15.907 15.888h42.262c8.753 0 15.907-7.13 15.907-15.888v-76.01h17.272c4.706 0 8.848-2.654 10.824-6.932 1.977-4.269 1.318-9.15-1.741-12.74zm-397.862 3.67c-4.377 0-8.001 3.581-8.001 8.001v83.898H53.245v-83.898a7.997 7.997 0 0 0-8-8.001H28.726l45.556-53.641 45.556 53.641h-16.566zm34.402-3.67-54.309-63.971v-.009c-2.306-2.711-5.506-4.198-9.083-4.198s-6.824 1.487-9.13 4.207l-54.31 63.971c-3.012 3.591-3.718 8.471-1.694 12.74 1.929 4.278 6.118 6.932 10.824 6.932h17.271v76.01c0 8.758 7.153 15.888 15.907 15.888h42.261c8.754 0 15.86-7.13 15.86-15.888v-76.01h17.319c4.706 0 8.848-2.654 10.824-6.932 1.978-4.269 1.319-9.159-1.74-12.74zm219.498 281.449h-33.603v-68.381a7.997 7.997 0 0 0-8-8.001c-4.424 0-8 3.582-8 8.001v68.381H204.455v-68.381a7.998 7.998 0 0 0-8.001-8.001 7.998 7.998 0 0 0-8.001 8.001v68.381h-33.649v-91.178c0-21.582 21.931-31.729 40.285-36.464 39.673-10.208 80.711-10.198 121.891.024 15.013 3.718 40.191 13.408 40.191 36.44v91.178h.001zM214.856 268.648c0-37.518 25.79-43.128 41.132-43.128 15.389 0 41.132 5.61 41.132 43.128 0 31.202-18.449 56.583-41.132 56.583-22.684 0-41.132-25.381-41.132-56.583zm105.984 75.723c33.273 8.25 52.333 27.188 52.333 51.97v99.179a7.998 7.998 0 0 1-8.001 8.001H146.804c-4.377 0-8.001-3.581-8.001-8.001v-99.179c0-24.839 18.589-43.292 52.286-51.952a258.352 258.352 0 0 1 45.556-7.469c-22.025-10.109-37.791-36.892-37.791-68.273 0-36.468 21.931-59.129 57.133-59.129 35.249 0 57.133 22.66 57.133 59.129 0 31.452-15.813 58.281-37.885 68.329 15.155 1.154 30.404 3.616 45.605 7.395z" clip-rule="evenodd"></path></svg>